<svg xmlns="http://www.w3.org/2000/svg" width="352" height="77" viewBox="0 0 352 77"><path fill="#f9f8f8" d="M191.914 42.092c.157-.633.469-1.552.348-2.196-.413-2.196-2.055-4.762-3.085-6.753-2.192-4.237-10.111-18.234-10.12-22.06-.001-.12-.024-.46.061-.54.724-.679 14.627-.212 16.577-.08 1.51 3.925 6.59 13.558 7.374 16.783 3.913-3.367 11.83-14.326 15.708-16.885 6.99-.228 13.977.234 20.976.038 3.664-.103 7.407-.066 11.078-.103-1.532 6.077-3.336 12.489-4.996 18.553 7.372-5.863 14.042-13.415 21.979-18.256.78-.476 18.258-.277 18.669.023.024.848.038.575-.533 1.42-5.321 6.754-16.345 12.465-22.815 18.424-.913.84-2.972 1.961-3.158 3.09.444 1.25 2.137 2.592 2.982 3.874 4.202 6.376 10.178 13.439 13.689 20.138.037.08.057.51.066.627-.745.643-17.778.34-19.821.33-2.548-2.639-11.592-16.648-13.795-20.264-1.585 6.063-4.012 14.223-5.839 20.278l-16.237-.014c1.287-6.255 2.413-9.34 4.188-15.276l5.012-16.8c1.191-3.854 3.007-9.457 3.819-13.23-4.395 5.452-10.191 10.532-14.844 15.825-2.607 2.966-9.493 8.346-11.01 11.528-2.556 5.361-3.229 12.427-5.944 18.02-2.138-.112-14.411.314-15.071-.459l.138-.843c1.042-3.21 3.33-13.151 4.604-15.192"/><path fill="#f9f8f8" d="M179.052 11.702c3.545.27 12.463.192 16.174.016 2.803 5.84 4.96 11.926 7.567 17.283 1.396-2.102 13.593-15.297 15.687-16.954 5.657-.518 10.453-.066 15.905-.268-5.024 5.906-11.753 11.627-17.003 17.563-2.954 3.34-7.909 7.078-10.304 11.054-2.152 4.891-3.113 12.554-4.994 17.61-1.985-.006-13.668.125-14.496-.235l-.278-.487c1.042-3.21 3.33-13.151 4.604-15.192.382-.7 1.103-2.022.782-2.742-1.274-2.85-2.84-6.002-4.199-8.8a760 760 0 0 0-6.467-13.115c-.763-1.512-2.125-4.462-2.978-5.733"/><path fill="#FF6B00" d="M191.914 42.092c.157-.633.469-1.552.348-2.196-.413-2.196-2.055-4.762-3.085-6.753-2.192-4.237-10.111-18.234-10.12-22.06-.001-.12-.024-.46.061-.54.724-.679 14.627-.212 16.577-.08 1.51 3.925 6.59 13.558 7.374 16.783 3.913-3.367 11.83-14.326 15.708-16.885 6.99-.228 13.977.234 20.976.038 3.664-.103 7.407-.066 11.078-.103-1.532 6.077-3.336 12.489-4.996 18.553 7.372-5.863 14.042-13.415 21.979-18.256.78-.476 18.258-.277 18.669.023.024.848.038.575-.533 1.42-1.406-.622-16.87-.398-18.519.236-2.623 1.01-20.394 16.042-23.361 18.848 2.173-6.355 3.572-13.198 5.793-19.487-4.905.24-9.953.15-14.882.29a864 864 0 0 1-10.183 35.644c-.836 2.743-2.01 8.097-3.23 10.353 4.395-.321 11.821.426 15.467-.373 1.374-7.712 4.341-14.238 5.555-21.267 4.377 6.91 9.809 14.907 14.749 21.368 2.791.212 17.784.945 19.309-.087.037.08.057.51.066.628-.745.643-17.778.34-19.821.33-2.548-2.639-11.592-16.648-13.795-20.264-1.585 6.063-4.012 14.223-5.839 20.278l-16.237-.014c1.287-6.255 2.413-9.34 4.188-15.276l5.012-16.8c1.191-3.854 3.007-9.457 3.819-13.23-4.395 5.452-10.191 10.532-14.844 15.825-2.607 2.966-9.493 8.346-11.01 11.528-2.556 5.361-3.229 12.427-5.944 18.02-2.138-.112-14.411.314-15.071-.459l.138-.843.278.487c.828.36 12.511.229 14.496.235 1.881-5.056 2.842-12.719 4.994-17.61 2.395-3.976 7.35-7.715 10.304-11.054 5.25-5.936 11.979-11.657 17.003-17.563-5.452.203-10.248-.25-15.905.268-2.094 1.657-14.291 14.852-15.687 16.954-2.607-5.357-4.764-11.443-7.567-17.283-3.711.176-12.629.254-16.174-.016.853 1.271 2.215 4.22 2.978 5.733a760 760 0 0 1 6.467 13.116c1.359 2.797 2.925 5.95 4.199 8.8.321.72-.4 2.04-.782 2.741"/><path fill="#f9f8f8" d="m289.171 57.657-.057-.003c-3.193-.161-8.206-3.505-10.299-5.836-3.769-4.196-4.709-8.024-4.329-13.55.799-11.591 7.724-18.925 17.357-24.407 8.565-4.875 14.729-4.338 24.248-4.013 5.73.151 12.331 2.99 16.209 7.276 3.36 3.713 3.96 9.106 3.773 13.979-.301 7.84-4.115 14.167-9.929 19.26-4.647 4.071-10.438 6.694-16.473 7.988-1.274.273-2.845.694-4.144.653-3.648.816-12.962.207-16.356-1.347m15.267-11.036c7.035.729 13.827-8.168 14.526-14.505.615-5.568-3.545-10.474-9.199-10.523-.66-.017-1.727-.142-2.346-.022-8.23 1.296-16.343 8.183-15.662 17.273.555 7.404 6.582 7.545 12.681 7.777"/><path fill="#FF6B00" d="M306.649 21.05c14.129-.781 17.456 8.766 9.615 20.047-2.825 4.063-7.51 5.454-12.171 6.502-3.105.355-7.312-.567-9.946-2.225-5.483-3.45-4.447-11.226-1.304-15.951 3.454-5.193 7.942-7.118 13.806-8.372m-2.211 25.57c7.035.73 13.827-8.167 14.526-14.504.615-5.568-3.545-10.474-9.199-10.523-.66-.017-1.727-.142-2.346-.022-8.23 1.296-16.343 8.183-15.662 17.273.555 7.404 6.582 7.545 12.681 7.777"/><path d="m301.304 24.68.236.275c-.223.595-1.978 2.018-2.603 2.61-.176-.09-.263-.264-.377-.434.397-.804 1.904-2.093 2.744-2.452"/><path fill="#f9f8f8" d="M159.334 10.383c3.969-.035 11.513-.237 15.359.147 3.28 15.938 7.388 31.935 10.5 47.963-5.705.024-11.487.17-17.172-.078-.102-.004-.534-.531-.588-.666-.126-2.144-.84-3.98-.829-6.365-7.201.262-16.374.162-23.61.01-1.955 2.32-3.29 4.616-5.54 7.026l-17.158.052c.83-1.434 7.311-9.553 8.476-10.778 1.795-3.196 28.693-36.148 30.562-37.311m-6.455 30.35c2.043-.012 10.356-.179 12.008.163-.077-1.86-2.432-12.486-3.081-14.29-1.926 3.025-9.73 11.019-10.734 13.863.482.335 1.131.238 1.807.263"/><path fill="#FF6B00" d="M159.334 10.383c3.969-.035 11.513-.237 15.359.147 3.28 15.938 7.388 31.935 10.5 47.963-5.705.024-11.487.17-17.172-.078-.102-.004-.534-.531-.588-.666 1.494.49 14.796.25 17.221.253-2.371-8.947-4.176-18.197-6.127-27.227-1.428-6.614-2.967-12.58-4.155-19.295-2.824.485-12.332.288-15.783.314-1.7 1.72-5.256 6.358-6.996 8.47l-15.119 18.431c-1.713 2.112-5.828 7.541-7.702 9 1.795-3.197 28.693-36.149 30.562-37.312"/><path fill="#f3f5fe" d="M152.879 40.732c2.043-.011 10.356-.178 12.008.164-3.299.517-8.97 2.03-12.008-.164"/><path fill="#f9f8f8" d="m41.891 10.454 20.822.021c6.94-.016 16.711-.977 22.027 4.36a12.68 12.68 0 0 1 3.651 9.033 14.5 14.5 0 0 1-.648 4.175c-3.274 10.519-11.75 16.598-22.637 16.464q-1.242-.015-2.483-.047c-3.215.18-13.797.06-16.873-.216-.61 2.434-3.657 12.436-4.651 14.238-5.11-.135-10.214.028-15.337-.093 2.195-6.297 6.222-22.26 9.088-26.904 10.998.437 22.131-.129 32.907.256 1.826-1.231 6.099-4.726 4.037-7.41-.341-.378-1.057-.846-1.562-.86-11.023-.329-22.24.314-33.248-.09q.826-2.277 1.622-4.562c.858-2.7 1.833-5.95 3.285-8.365"/><path fill="#FF6B00" d="m41.891 10.454 20.822.021c6.94-.016 16.711-.977 22.027 4.36a12.68 12.68 0 0 1 3.651 9.033 14.5 14.5 0 0 1-.648 4.175c-3.274 10.519-11.75 16.598-22.637 16.464q-1.242-.015-2.483-.047c1.535-.203 3.738-.228 5.429-.406 4.6-.468 9.763-2.66 13.018-6.039 5.302-5.506 9.866-16.157 3.575-22.492a12 12 0 0 0-5.715-3.178c-3.82-.884-11.646-.614-15.867-.612l-21.488-.01c-.88 1.959-1.916 5.486-2.969 7.096.858-2.7 1.833-5.95 3.285-8.365"/><path fill="#f9f8f8" d="M94.908 10.444c4.44-.427 10.911.213 15.997-.195-2.022 7.082-4.206 14.065-6.295 21.123-1.509 5.095-2.914 10.16-4.756 15.156 7.31-.098 15.192.002 22.526.03 1.188.01 2.691-.02 3.85.069-1.041 2.167-6.75 9.837-8.488 11.74-10.38.353-20.977-.188-31.377.037a104 104 0 0 1-5.468-.01c.28-1.09.67-2.797 1.053-3.801.65-5.15 3.998-14.656 5.53-19.945 1.54-5.32 4.961-19.844 7.427-24.204"/><path fill="#FF6B00" d="M94.908 10.444c4.44-.427 10.911.213 15.997-.195-2.022 7.082-4.206 14.065-6.295 21.123-1.509 5.095-2.914 10.16-4.756 15.156 7.31-.098 15.192.002 22.526.03-6.77.76-16.26-.235-23.14.24.689-2.912 1.708-5.685 2.581-8.547l4.596-15.067c1.146-3.649 2.055-7.983 3.284-11.475-3.575.147-11.477.278-15.002.024-.825 3.136-1.675 6.514-2.699 9.582-1.562 4.681-2.716 9.366-4.052 14.102-.889 3.152-2.238 6.295-3.138 9.459-.665 2.036-2.02 8.14-2.86 9.717.65-5.15 3.998-14.656 5.53-19.945 1.54-5.32 4.961-19.844 7.427-24.204"/><path d="M76.672 43.008c.064.065.122.3.155.404-.71 1.176-2.714 1.62-4.03 2.02l-.173-.248c.217-.69 2.74-1.007 4.048-2.176"/></svg>