<svg xmlns="http://www.w3.org/2000/svg" width="1344" height="768" viewBox="0 0 1344 768"><path fill="#FF6B00" d="m196.21 196.133 67.458.075c-.277 19.627-.873 45.595.122 64.973 21.832.055 45.492.535 67.224 0l-.342 27.366c3.877.007 12.035-.164 15.505.388l.725.039c5.005.252 19.851-1.099 22.562.842.519 5.339-6.526 27.627-8.386 34.263l-11.706 40.611c-1.621 5.605-4.73 15.167-5.818 20.372a4215 4215 0 0 0-14.014 48.294l69.565-.004c5.662-.037 32.187-.757 35.539.886 1.449 3.939-3.346 8.783-5.676 11.703-4.119 5.161-25.272 34.185-28.589 36.088l-1.515.934c-.623 5.964-.008 18.661.174 25.248l-67.822.008c-.03-8.334.077-17.227-.149-25.512l-67.811.037c.134 8.058.073 17.588.566 25.504l-67.67.039.062-65.131c-22.167.3-44.749.076-66.947.056a567 567 0 0 0-.012-18.07c-4.52.018-7.939-.034-12.457-.381 15.818-.507 36.881-.331 52.842-.098 31.263.993 61.247-1.159 84.77-24.557 31.449-31.28 42.733-96.093-12.919-109.041-13.199-3.071-30.189-1.936-43.75-1.983l-68.169.03c-.64-7.849-.421-19.766-.472-27.928 21.943.482 45.115.089 67.097-.031.253-21.524.026-43.465.013-65.02"/><path fill="#FF6B00" d="m346.177 288.935.725.039c5.005.252 19.851-1.099 22.562.842.519 5.339-6.526 27.627-8.386 34.263l-11.706 40.611c-1.621 5.605-4.73 15.167-5.818 20.372a4215 4215 0 0 0-14.014 48.294l69.565-.004c5.662-.037 32.187-.757 35.539.886 1.449 3.939-3.346 8.783-5.676 11.703-4.119 5.161-25.272 34.185-28.589 36.088-48.57-.347-99.634 1.053-147.809-.111 3.728-17.509 13.16-46.4 18.358-64.48 12.218-42.494 24.113-85.995 36.735-128.295 12.093-.164 26.643.664 38.514-.208"/><path fill="#FF6B00" d="m129.572 289.112 68.169-.03c13.561.047 30.551-1.088 43.75 1.983 55.652 12.948 44.368 77.761 12.919 109.041-23.523 23.398-53.507 25.55-84.77 24.557-15.961-.233-37.024-.409-52.842.098-3.083-.131-2.908-.602-5.188.716-3.638 5.939-3.663 10.632-5.82 17.275l-12.583 39.373c-10.771-.064-41.23-.938-50.835.227-3.59-.222-7.211-.276-10.809-.363a2603 2603 0 0 1 12.234-38.18c5.02-17.68 12.672-39.304 18.62-56.989 1.231-4.248 2.377-7.398 3.941-11.511 43.406-.455 86.802.209 130.285-.427-1.034-9.87-.476-26.122-.372-36.536-3.517.004-17.663.504-19.567-.708l-62.866-.12c-5.289.002-32.14.908-34.714-1.324-.47-4.027 14.992-40.437 17.622-47.104a1497 1497 0 0 1 32.826.022"/><path fill="#FF6B00" d="M176.704 337.638c10.359-.12 29.454-2.409 37.348 5.193 7.204 6.937 1.272 20.912-5.195 26.298-4.285 3.723-6.64 4.42-12.214 5.753-1.034-9.87-.476-26.122-.372-36.536-3.517.004-17.663.504-19.567-.708"/><path fill="#FF6B00" d="M1273.88 131.17c8.65.081 65.97-1.476 70.12 1.251v191.385c-3.26.821-18.95.58-23.38.572l-46.15-.12c-1.4-17.307-.47-44.778-.62-63.081l-67.86.111-.05-65.119 67.94.047c.59-18.102.09-36.409.33-54.532.04-3.552-.05-6.97-.33-10.514"/><path fill="#FF6B00" d="M263.785 638.137c19.121 1.085 47.655.5 67.2.042l-.134 42.051c-.003 5.947-.287 17.741.441 23.303q33.752.318 67.506.148c-.133 20.725-.757 43.807-.214 64.319H196.198l-.008-64.434c22.059.152 45.46.401 67.426-.092.666-20.975.012-44.05.169-65.337"/><path fill="#FF6B00" d="M0 385.73c9.469-.038 56.021-1.203 62.417 1.09-5.948 17.685-13.6 39.309-18.62 56.989a2603 2603 0 0 0-12.234 38.18c3.598.087 7.22.141 10.81.363 9.604-1.165 40.063-.291 50.834-.227l12.583-39.373c7.09.661 15.946.586 23.138.379-.226 18.334-1.039 47.555.301 65.137l-44.57-.039c-6.766.015-16.924.365-23.47-.003l.084 42.731c.002 5.534-.326 17.193.163 22.333A5825 5825 0 0 0 0 573.218V385.73"/><path fill="#FF6B00" d="m398.954 261.192 67.076.108c-.011 20.613-.421 42.683.078 63.177l-67.269.246c-.299 16.489-1.014 44.935.073 60.652l67.136-.072-.39 25.117c-.538-8.08-.397-16.342-.377-24.451h-65.625v46.591c4.874-.221 32.233-.92 35.271.189 1.893 1.787 1.447.912 1.898 3.253-.743 3.457-3.245 6.36-5.493 9.106.406.396.742.745 1.046 1.226-1.369.482-2.016.077-3.41-.393 2.33-2.92 7.125-7.764 5.676-11.703-3.352-1.643-29.877-.923-35.539-.886l-69.565.004a4215 4215 0 0 1 14.014-48.294c1.088-5.205 4.197-14.767 5.818-20.372l11.706-40.611c12.455.43 25.371.295 37.868.318q.255-31.602.008-63.205"/><path fill="#FF6B00" d="M399.217 0h133.645l.002 65.779-133.815-.054c.352-21.663.049-43.96.168-65.725"/><path fill="#FF6B00" d="M599.655 573.527c21.261.227 44.835.326 66.111-.096-.112 20.909-.582 43.987.04 64.764a4396 4396 0 0 0-66.367.075c-.094 21.15-.559 43.878-.021 64.966q-33.284-.038-66.565.346c.246-21.718.059-43.713.036-65.452 12.633.618 26.375.437 39.083.405 7.939-.021 19.854.274 27.518-.417q.263-32.295.165-64.591"/><path fill="#FF6B00" d="M1274.34 0H1344v64.35c-3.51 2.266-21.4 1.4-26.51 1.394l-43.44.05c.16-21.977-.25-43.807.29-65.794"/><path fill="#FF6B00" d="M1273.82 443.081c22.09.262 44.5-.412 66.6.317 1.89.062 2.56 1.661 3.58 3.061v59.574l-.2.599c-3.43 2.658-20.94 1.849-26.02 1.864l-43.76.092c-.5-21.329.13-43.802-.2-65.507"/><path fill="#FF6B00" d="M1273.87 573.515c14.41.051 28.83.028 43.24-.07 7.46-.038 15.48-.22 22.94.237 2.03.125 2.63 1.768 3.95 3.584v59.253c-3.58 2.508-20.07 1.668-25.29 1.664l-44.71.077c.22-21.581.18-43.165-.13-64.745"/><path fill="#FF6B00" d="M1273.8 768q.195-20.3.15-40.601c0-7.135-.3-17.003.19-23.813l57.6-.131c5.26.04 8.89-.712 12.26 2.694V768z"/><path fill="#FF6B00" d="M1003.31 0h67.58c-.16 21.923-.14 43.848.04 65.771-22.57-.111-45.15-.088-67.72.07.49-21.414.1-44.313.1-65.841"/><path fill="#FF6B00" d="M1138.51 0h67.21q-.21 32.919.06 65.837c-21.37-.717-45.88-.114-67.36-.038z"/><path fill="#FF6B00" d="M263.806 0h67.072c1.04 20.874-.78 44.299.27 65.81-22.233-.337-45.133-.145-67.41-.092z"/><path fill="#FF6B00" d="M733.631 0h66.961q-.213 32.905.109 65.808c-22.107-.362-45.082-.034-67.24-.013.499-21.35.115-44.34.17-65.795"/><path fill="#FF6B00" d="M935.24 638.156c21.31.224 46.89.908 67.82.06-.3 19.14-.99 46.682.14 65.313-22.436.002-45.681-.446-68.062-.019.391-5.989.105-15.183.127-21.567q.131-21.894-.025-43.787"/><path fill="#FF6B00" d="M868.37 0h66.774l.106 65.727-67.076.074c-.01-21.722-.279-44.139.196-65.801"/><path fill="#FF6B00" d="M129.251 0h66.852l.148 65.735-67.034.075c.473-21.323.033-44.348.034-65.81"/><path fill="#FF6B00" d="m61.562 196.169 67.571.057c-.655 6.73-.37 18.29-.379 25.21q-.13 19.934.129 39.866l-67.38.012q.322-32.572.059-65.145"/><path fill="#FF6B00" d="M196.319 65.838c18.873.247 47.86.863 66.356-.057l.806.85c.712 18.028-.71 47.272.207 64.141-20.096.021-47.936-.806-67.499.343z"/><path fill="#FF6B00" d="M196.191 573.208c17.96 1.106 49.079.484 67.558.214-.21 20.948-.573 43.859.036 64.715a4137 4137 0 0 0-67.58.153z"/><path fill="#FF6B00" d="M263.721 131.182c22.048.013 45.424.418 67.364-.102a2611 2611 0 0 0-.157 64.858c-21.382.988-45.534-.173-67.26.27z"/><path fill="#FF6B00" d="M1003.25 703.556c22.59.136 45.17.141 67.76.015-.24 21.476-.27 42.953-.11 64.429h-67.73z"/><path fill="#FF6B00" d="M599.681 0h66.091c-.024 21.836-.198 43.89.05 65.708l-66.525.079c.649-6.573.351-17.708.339-24.64z"/><path fill="#FF6B00" d="M129.17 131.197q33.51.168 67.019-.082c.032 21.467-.278 43.626.021 65.018-18.1-.729-48.758-.45-67.077.093.803-19.99.104-44.823.037-65.029"/><path fill="#FF6B00" d="M1070.97 638.285c18.1.505 49.1.992 67.07.189-.01 21.279-.37 43.583.04 64.779l-45.62.145c-4.7.011-17.31-.364-21.45.173.32-21.761.31-43.525-.04-65.286"/><path fill="#FF6B00" d="M868.142 573.547c20.344.012 47.055.775 67.095-.21l.003 64.819-67.099.095z"/><path fill="#FF6B00" d="M263.822 508.248c18.238.888 48.584.611 67.082.018-.121 20.783-.63 44.353.043 64.921l-67.164.08c-.017-20.072-.76-45.329.039-65.019"/><path fill="#FF6B00" d="M129.199 508.488c18.44.033 49.723 1.004 66.952-.333-.038 21.488-.332 43.617.04 65.053a4811 4811 0 0 0-66.998.08c.05-20.004.798-45.066.006-64.8"/><path fill="#FF6B00" d="M61.56 703.543q33.592.398 67.187.115a6419 6419 0 0 1-.093 64.342h-67.18c.191-21.471-.158-43.061.086-64.457"/><path fill="#FF6B00" d="M1138.45 703.621c22.45.094 44.89.049 67.34-.135-.14 20.52-.7 44.23 0 64.514h-67.35z"/><path fill="#FF6B00" d="M868.135 703.612c21.149.258 46.034.539 67.003-.102-.074 20.746-.583 43.842.063 64.49h-67.206c.565-20.877.157-43.436.14-64.388"/><path fill="#FF6B00" d="M733.542 703.488c20.425.352 46.697.734 67.096.04L800.571 768h-67.023z"/><path fill="#FF6B00" d="M466.203 574.253c1.9-1.238 59.936-.646 66.634-.826l.052 64.703-66.794.144c.788-18.36.564-45.281.108-64.021"/><path fill="#FF6B00" d="M466.344 703.65q33.254.157 66.509-.068l.051 64.418h-66.683c.64-20.484.12-43.658.123-64.35"/><path fill="#FF6B00" d="M599.603 703.613c21.735.064 44.568.405 66.247-.038-.289 18.033-.853 46.73.016 64.425h-66.362z"/><path fill="#FF6B00" d="M0 0h61.276l-.051 43.111c-.005 5.988-.308 17.151.203 22.731-20.454-.294-41.109.231-61.428-.141z"/><path fill="#FF6B00" d="M0 131.194c20.226.012 41.18.277 61.345-.139-.139 20.577-.658 44.501.092 64.847-20.249.145-41.208.455-61.437.07z"/><path fill="#FF6B00" d="M0 638.503c20.131-.645 41.378.625 61.234-.128l-.032 65.033c-20.115-.362-40.972.069-61.202.01z"/><path fill="#FF6B00" d="M0 261.234c19.451-.005 42.114.587 61.303-.086-.031 20.858-.367 42.458-.08 63.25L0 324.487z"/><path fill="#FF6B00" d="m733.511 131.181 67.287-.025c-.335 20.973-.614 44.142-.023 65.056l67.282-.009.082-65.013c22.243.007 44.912.244 67.119-.031l.043 65.061c22.205-.003 45.961-.459 68.029 0-.22 19.715-1.14 45.276-.14 64.714-22.478.117-45.437.018-67.891.373.676-20.859.215-44.324.059-65.362-22.36.095-45.109-.253-67.393.127-.106 19.014-.967 46.953.064 65.157 10.274-.003 22.639-.304 32.737.223-6.858.962-24.197.492-31.891.456v25.931c2.507.018 5.803-.151 8.086.665 7.05 4.764-13.906 22.65-18.228 27.199a3048 3048 0 0 1-41.609 42.79c-6.064 6.09-50.47 49.122-52.073 53.382-7.06 18.751-14.003 49.536-20.51 70.081-19.995.051-43.038.644-62.786-.084 5.595-24.003 15.099-49.701 21.015-74.499a5274 5274 0 0 1-35.036-78.626c-5.157-11.668-10.837-23.565-15.701-35.392-.554-1.348-.383-3.51-.243-4.977 3.201-.852 9.452-.558 12.991-.536.02-3.714.393-24.012-.46-25.813l-3.579-.253.417-.609 3.75-.124c1.322-1.416 1.212-5.047 1.214-7.109.022-19.241-.06-38.483-.132-57.723l67.465.006a4338 4338 0 0 0 .055-65.036"/><path fill="#FF6B00" d="M876.961 288.504c7.05 4.764-13.906 22.65-18.228 27.199a3048 3048 0 0 1-41.609 42.79c-6.064 6.09-50.47 49.122-52.073 53.382-7.06 18.751-14.003 49.536-20.51 70.081-19.995.051-43.038.644-62.786-.084 5.595-24.003 15.099-49.701 21.015-74.499a5274 5274 0 0 1-35.036-78.626c-5.157-11.668-10.837-23.565-15.701-35.392-.554-1.348-.383-3.51-.243-4.977 5.244.98 18.441.704 24.218.688a3161 3161 0 0 1 42.783-.049c9.444 20.9 20.194 49.714 28.848 71.672 21.627-23.909 44.755-47.867 66.705-71.785l41.875.12c4.697-.014 16.419.155 20.742-.52"/><path fill="#FF6B00" d="m1138.45 261.214 67.32-.048c.08 7.974-.03 15.948-.31 23.916 51.05 8.061 82.45 40.15 73.08 93.288-7.73 43.792-34.38 75.075-73.51 94.513 1.6 9.401 0 25.117.99 35.417-22.4-.025-45.27-.292-67.63-.001.06-7.108.27-14.858-.04-21.909-27.13-1.627-43.03-4.253-66.5-19.032-27.72-22.005-33.71-46.336-27.58-80.697 7.71-47.945 50-82.979 94.23-96.988.52-6.605-.01-21.266-.05-28.459"/><path fill="#FF6B00" d="M1138.35 486.39c22.92.198 45.64-4.403 66.68-13.507 1.6 9.401 0 25.117.99 35.417-22.4-.025-45.27-.292-67.63-.001.06-7.108.27-14.858-.04-21.909"/><path fill="#FF6B00" d="m1138.45 261.214 67.32-.048c.08 7.974-.03 15.948-.31 23.916-21.55-2.968-46.12-2.052-66.96 4.591.52-6.605-.01-21.266-.05-28.459"/><path fill="#FF6B00" d="M1109.39 385.007c5.59-19.661 15.52-34.676 33.92-44.835 37.12-20.49 83.27-.921 68.19 47.413-10.89 34.922-39.08 52.799-75.59 47.568-26.41-8.632-31.18-24.679-26.52-50.146"/><path fill="#FF6B00" d="m1003.24 261.212 67.81.012c-.06 3.469-.59 25.639-.05 27.704 4.9-.107 17.23-.738 21.14.42 3.7 4.605-18.79 19.864-22.55 22.986 1.1 4.149.9 7.795.91 12.07-4.9-.051-10.21.289-14.77-1.34l-53.71 41.473c1.27 5.069.99 15.11 1.11 20.801 9.08.046 34.07-1.179 41.14 1.323-6.13 34.361-.14 58.692 27.58 80.697-2.13 3.126-.99 34.886-.83 40.905l-67.89.049c.05-8.453.21-17.196.12-25.623-4.942.018-26.108.325-29.407-.342-5.952-7.453-15.304-22.436-20.788-30.72a2930 2930 0 0 0-37.612-56.16c-3.959 15.558-8.64 31.557-12.955 47.063 3.515 1.75 27.267.662 32.629.633l.229 65.153c-21.869-.037-45.488-.504-67.278.01.008-3.643.692-24.211-.585-26.393l-39.557-.09c2.85-12.389 7.661-27.105 11.27-39.489l18.731-65.534 16.067-56.654c2.572-9.071 5.949-22.655 9.223-31.091q19.275.076 38.55-.056c5.438-.037 16.982-.409 21.715.306 2.481 5.569-17.179 66.789-20.476 77.908 26.903-20.529 54.61-43.545 81.044-64.91-1.29-5.952-.74-32.985-.81-41.111"/><path fill="#FF6B00" d="M982.299 379.428c5.936-4.779 13.517-10.182 19.721-14.891 1.27 5.069.99 15.11 1.11 20.801 9.08.046 34.07-1.179 41.14 1.323-6.13 34.361-.14 58.692 27.58 80.697-2.13 3.126-.99 34.886-.83 40.905l-67.89.049c.05-8.453.21-17.196.12-25.623-4.942.018-26.108.325-29.407-.342 3.888-.681 14.014-.47 18.32-.454l34.157.135c5.96.022 14.73.311 20.34-.316.75-.601 1.07-.611 1.23-1.249.32-1.211-.28-3.119-.99-4.164-6.29-9.294-12.71-18.967-18.87-28.294z"/><path fill="#FF6B00" d="M902.488 442.53c3.515 1.75 27.267.662 32.629.633l.229 65.153c-21.869-.037-45.488-.504-67.278.01.008-3.643.692-24.211-.585-26.393l23.953.101c3.864-12.884 7.442-26.504 11.052-39.504"/><path fill="#FF6B00" d="m1003.24 261.212 67.81.012c-.06 3.469-.59 25.639-.05 27.704-17 .239-34 .308-51.01.206-4.17 3.429-12.03 10.442-15.94 13.189-1.29-5.952-.74-32.985-.81-41.111"/><path fill="#FF6B00" d="M1069.59 312.334c1.1 4.149.9 7.795.91 12.07-4.9-.051-10.21.289-14.77-1.34z"/><path fill="#FF6B00" d="m570.027 288.959 62.786.001c2.226 6.892 4.279 18.727 5.763 26.198l9.451 48.64 14.953 75.962c1.216 6.169 8.229 37.726 6.98 41.386l-.914.685-3.146 1.163c-.535 5.147-.211 20.156.291 25.332-21.778-.444-44.562.066-66.547-.104.067-12.429-.501-22.265 1.567-34.585-.837-6.772-1.914-13.23-3.036-19.949q-27.532-.295-55.063.029c-3.382.968-6.769.773-10.284.769-.016 17.72-.288 36.182.185 53.839l-66.897-.152c.356-5.857.339-19.865-.116-25.551-5.538.035-41.762.73-43.853-.639-2.373-.023-5.096.224-7.085-.95-.994-3.285 12.77-18.518 15.771-22.113a3001 3001 0 0 0 22.809-27.655l70.489-85.673c15.128-18.359 31.486-37.773 45.896-56.633"/><path fill="#FF6B00" d="M500.705 453.659c13.993.231 28.325-.083 42.407.058-3.382.968-6.769.773-10.284.769-.016 17.72-.288 36.182.185 53.839l-66.897-.152c.356-5.857.339-19.865-.116-25.551-5.538.035-41.762.73-43.853-.639 5.03-.374 13.944-.112 19.294-.111l37.398.015c6.459-7.066 15.964-20.336 21.866-28.228"/><path fill="#FF6B00" d="m601.211 473.637 1.879 8.259c19.851.029 46.682.9 65.956-.065l-3.146 1.163c-.535 5.147-.211 20.156.291 25.332-21.778-.444-44.562.066-66.547-.104.067-12.429-.501-22.265 1.567-34.585"/><path fill="#FF6B00" d="M582.032 347.168a1869 1869 0 0 1 5.657 37.686c1.004 2.925 3.576 21.466 4.154 25.374l-59.765.095c6.84-8.498 14.222-18.364 21.217-26.473 9.323-12.379 19.374-24.134 28.737-36.682"/><path fill="#FF6B00" d="M1205.82 638.123c20.64.997 47.09.648 67.99.223-.38 19.35 1.11 46.386-.21 64.905-21.43-.025-46.5-.648-67.64.29.18-21.806.13-43.613-.14-65.418"/><path fill="#FF6B00" d="m331.192 196.208 67.738.012c-.87 13.443-.144 27.772-.454 41.298-.175 7.623-.106 16.082.378 23.633l-67.681.18c.853-19.205.292-45.513.019-65.123"/><path fill="#FF6B00" d="m1001.28 508.353.96.077c1.67 2.828.5 56.506.99 64.841l-66.795-.019c-.09-.05-.198-.077-.271-.151-1.647-1.656-.734-56.678-.827-64.648 21.264.397 44.665.228 65.943-.1"/><path fill="#FF6B00" d="M1206.04 65.864c20.09.653 47.8.608 67.82.05-.33 19.485.99 46.333-.27 64.88-21.16-.049-46.91-.766-67.63.275z"/><path fill="#FF6B00" d="m1003.25 131.176 67.79-.016c-.27 21.037-.58 43.944-.01 64.909-21.24-.241-46.75-.899-67.7.151.09-21.681.07-43.363-.08-65.044"/><path fill="#FF6B00" d="M1206.01 508.36c21.43.65 46.18.356 67.78.158l.05 64.716c-22.02.44-45.72-.017-67.87.007.16-21.627.17-43.254.04-64.881"/><path fill="#FF6B00" d="M665.996 638.195c16.854.791 50.652.872 67.365-.039.383 21.151-.07 42.799.005 64.026l-.42.682c-6.004 1.765-56.84.595-66.853.697z"/><path fill="#FF6B00" d="M394.268 65.939c2.245-.117 2.179-.453 4.031.514.773 2.613.424 17.503.416 21.264q-.238 21.569.186 43.135l-61.961.033-5.689.238.014-65.082q31.502.151 63.003-.102"/><path fill="#FF6B00" d="M935.52 65.77c6.445.526 17.583.237 24.319.238q21.581.046 43.161-.174c-.12 21.344-.43 43.705.17 64.971-20.062-.051-48.556-.931-67.94.362z"/><path fill="#FF6B00" d="M331.206 573.446c21.544.642 45.831.107 67.606.076-.453 16.984-.872 47.26.089 63.662l-.853.77c-14.553.464-55.836.295-66.84.317z"/><path fill="#FF6B00" d="M1003.26 573.447c20.75.719 46.92.308 67.74.066-.54 19.784-.45 44.989-.02 64.74l-67.73.019c.18-21.608.19-43.217.01-64.825"/><path fill="#FF6B00" d="M666.008 508.487c21.972.372 45.275-.062 67.336-.091l-.044 42.457c-.004 5.868-.317 16.953.467 22.427l-67.752.008z"/><path fill="#FF6B00" d="M61.597 66.004c19.883.767 47.321.298 67.301.007-.766 17.804-.461 46.988.019 64.873-20.984-.669-46.206-.01-67.475.28q.285-32.58.155-65.16"/><path fill="#FF6B00" d="M666.012 65.808c18.972.435 48.41.692 67.189-.032l.106 64.996c-21.468.032-46.145-.542-67.34.383q.2-32.673.045-65.347"/><path fill="#FF6B00" d="M1071.09 65.99c20.74.203 46.33.579 66.93-.108.28 21.41-.49 43.706.08 64.954l-67.06.324c.2-21.031.74-44.215.05-65.17"/><path fill="#FF6B00" d="M1138.45 573.592c20.62.703 46.19-.031 67.23-.084-.08 21.152-.33 43.638.15 64.701-21.46.591-45.7.03-67.43.056.14-21.557.16-43.115.05-64.673"/><path fill="#FF6B00" d="M129.062 638.196c10.84.621 23.864.203 34.883.203 10.138 0 22.357.356 32.212-.246l-.038 63.385-.508 1.448c-4.073.568-21.528.386-26.306.294-13.108-.254-27.151.524-40.06.162.011-21.454.331-43.872-.183-65.246"/><path fill="#FF6B00" d="m1070.97 196.161 67.31.023c-.51 20.494-.53 44.415-.23 64.986-22.33-.169-44.67-.151-67 .054.39-19.48.61-45.701-.08-65.063"/><path fill="#FF6B00" d="M1138.45 131.182c22.22.301 45.09.078 67.34-.042-.43 20.383-.41 44.566.01 64.866-17.71-.834-49.62-.647-67.37.214z"/><path fill="#FF6B00" d="M398.957 638.464q33.527.177 67.052-.058c-.291 7.211.567 62.771-.804 64.802-20.964.725-44.837.132-66.158.366q.262-32.555-.09-65.11"/><path fill="#FF6B00" d="M800.738 638.13c8.442.732 20.108.388 28.814.381 12.431-.008 26.071.319 38.394-.372-.467 18.392-.78 46.729.083 64.993-5.538.484-16.862.145-22.747.142l-44.241-.037q.013-32.554-.303-65.107"/><path fill="#FF6B00" d="M466.116 508.173c-.78 20.004-.327 44.817-.062 65.048q-33.533-.168-67.065.071.32-32.41.037-64.819c21.917.344 45.102-.05 67.09-.3"/><path fill="#FF6B00" d="m61.56 573.451 67.32.046-.157 43.226c-.001 4.645-.25 17.348.339 21.473-21.21-.098-46.64-.756-67.582.091.45-21.321.132-43.453.08-64.836"/><path fill="#FF6B00" d="M800.81 65.938c19.773.568 47.504.57 67.268-.04-.562 20.518-.728 44.364-.137 64.857l-67.053.132q.227-32.475-.078-64.95"/><path fill="#FF6B00" d="m1070.96 508.517 67.1-.073c-.02 21.287-.36 43.536.07 64.745-22.05 0-45.18-.327-67.13.324.41-21.664.4-43.333-.04-64.996"/><path fill="#FF6B00" d="M733.673 573.446c21.416.408 45.672.32 67.049-.029-.285 20.912-.522 43.947.038 64.77a3650 3650 0 0 0-67.087.037z"/><path fill="#FF6B00" d="M801.188 508.396c20.59.753 45.968.176 66.89-.01-.811 12.659.054 26.316-.347 39.062-.249 7.896-.11 16.899.411 24.764-2.189 1.882-58.131.982-67.074 1.095z"/><path fill="#FF6B00" d="m532.862 196.173 66.468.004c-.014 20.82-.582 44.47.15 65.063-15.553-.551-31.513.199-47.112-.264a263 263 0 0 0-19.354.159c-.301-21.503.007-43.369-.152-64.962"/><path fill="#FF6B00" d="M532.873 65.926c19.849.64 46.541.456 66.405-.011.095 21.4-.419 43.687.195 64.999-19.363-.71-47.182-.362-66.544.089-.4-21.234.053-43.654-.056-65.077"/><path fill="#FF6B00" d="m599.599 131.192 66.368-.037c-.78 17.531-.614 47.215-.057 64.799-18.959-.807-43.025.245-62.752-.038-1.69.222-1.927.375-3.336-.405-.593-3.483-.225-15.909-.219-20.059z"/><path fill="#FF6B00" d="M532.852 508.053c19.202 1.277 46.73.553 66.467.394-.024 20.739-.552 44.26.267 64.771a3191 3191 0 0 0-66.714.111c-.118-20.173 1.248-45.486-.02-65.276"/><path fill="#FF6B00" d="m466.656 131.191 66.185-.009c-.014 8.361 1.224 61.992-.85 64.885l-64.913-.154c-1.107-20.061-.56-44.462-.422-64.722"/><path fill="#FF6B00" d="m398.915 131.2 65.091.05c2.026 14.033.345 49.136.617 64.634-21.901.449-43.785.199-65.693.336.209-21.049.662-44.074-.015-65.02"/></svg>