<svg xmlns="http://www.w3.org/2000/svg" width="352" height="77" viewBox="0 0 352 77"><path fill="#266de3" d="M307.42 10.355c.044-.01.143-.031.185-.034 7.303-.39 15.37.27 21.374 4.869 9.799 7.507 7.332 21.556.616 30.254-6.723 8.707-14.714 11.626-25.322 13.034-8.535.26-16.373-.17-23.435-5.72-9.203-7.18-5.818-22.461.797-30.27 6.633-7.832 15.879-11.201 25.785-12.133"/><path fill="#266de3" d="M308.596 20.854c13.605.184 14.597 11.37 7.311 20.757-3.271 4.215-8.596 5.757-13.779 6.117-12.64-1.408-15.588-10.015-7.721-20.427 3.071-4.063 9.116-6.129 14.189-6.447"/><path fill="#266de3" d="M158.744 11.71q7.826.136 15.652.027c.666 5.749 2.441 11.342 3.52 16.987 1.859 9.725 4.441 19.332 6.49 28.98q-8.207.04-16.414-.034-.612-3.376-1.077-6.777c-5.997.165-13.436-.088-19.608-.093-1.669-.018-3.359.088-5.026.172-1.235 2.256-3.257 4.67-4.882 6.725-5.392.12-10.925-.047-16.356.03 3.417-4.564 7.839-9.543 11.5-14.016z"/><path fill="#266de3" d="m161.924 25.113.37.221c1.15 5.037 2.121 10.464 3.195 15.56-3.826.138-7.675.083-11.504.06-1.335-.053-2.887-.003-4.24.007 3.556-5.372 8.336-10.352 12.179-15.848"/><path fill="#266de3" d="M267.668 11.777c4.807.08 14.167.265 18.689-.15-3.891 3.258-9.079 6.976-13.17 10.13-4.496 3.464-10.282 8.249-14.931 11.236 3.593 4.198 7.735 10.238 11.031 14.825 2.233 3.122 4.944 6.998 7.389 9.898l-19.372-.051c-.352-.572-.797-1.173-1.186-1.73-4.487-6.443-9.159-12.904-13.402-19.514-1.684 6.86-4.168 14.182-6.03 21.311q-7.39-.078-14.782-.049c.837-2.069 2.007-6.831 2.747-9.2 2.766-8.856 5.073-17.93 7.818-26.816.988-3.196 1.616-6.71 2.652-9.845l14.659-.09c-1.979 6.102-3.81 12.92-5.617 19.135 1.663-1.18 4.875-3.968 6.584-5.344z"/><path fill="#266de3" d="M41.662 11.687c5.443.272 10.82-.237 16.503.063 10.377.548 29.455-3.721 29.445 12.192-.004 4.855-3.626 11.228-7.107 14.474-6.497 6.057-14.718 6.024-23.034 5.77-4.12-.046-8.131.08-12.25-.123-1.205 4.77-3.117 8.974-4.301 13.683l-3.355.003-11.165-.047c2.37-6.088 3.942-12.7 6.232-18.843.796-2.134 1.81-4.664 2.313-6.86l20.834.12c3.696.023 7.413.075 11.107-.077 5.887-.24 8.184-9.226 1.963-9.52-8.142-.387-16.613-.05-24.794-.179-2-.031-4.452-.054-6.414.155 1.366-3.38 2.915-7.334 4.023-10.81"/><path fill="#266de3" d="M179.579 11.83q7.791.018 15.581-.086l7.551 17.229c2.935-3.843 12.393-13.545 16-17.146 4.815-.065 10.95.202 15.516-.107-1.879 2.45-4.265 4.48-6.379 6.727a710 710 0 0 1-10.662 11.082c-3.376 3.259-9.6 8.578-10.921 12.831-1.513 4.872-2.826 10.45-4.167 15.437-4.508-.156-9.943-.144-14.463-.11 2.029-6.215 3.204-11.73 5.543-18.2-1.948-2.896-5.657-11.617-7.572-15.195-1.018-1.902-5.438-10.748-6.027-12.462"/><path fill="#266de3" d="M94.855 11.725c2.579.174 12.355.27 14.758.047-3.3 11.7-7.327 23.421-10.487 35.015 6.66.28 13.348.004 20.01.031 2.219.01 4.416.037 6.635-.064-2.159 2.411-4.416 5.5-6.395 8.105l-2.072 2.848c-11.436.239-24.53.104-36.008-.032 1.518-4.47 2.668-9.116 4.004-13.659 3.115-10.593 6.662-21.687 9.555-32.291"/></svg>