<svg xmlns="http://www.w3.org/2000/svg" width="352" height="77" viewBox="0 0 352 77"><path fill="#FF6B00" d="M0 0h352v77H0z"/><path fill="#fbfafa" d="M308.019 10.356c6.611-.799 16.394.829 21.552 5.29 10.4 8.995 5.682 24.75-2.925 33.141-6.38 6.22-14.318 8.962-23.083 9.712-8.261.143-16.351-.472-22.973-6.003-9.011-7.526-5.427-22.502 1.307-30.303 6.619-7.668 16.282-11.06 26.122-11.837"/><path fill="#FF6B00" d="M306.741 21.07c13.254-1.855 17.201 9.537 10.125 19.167-3.46 4.708-6.715 6.237-12.329 7.24-3.445.525-7.604-.424-10.478-2.346-6.016-4.023-4.079-11.523-.578-16.549 3.449-4.949 7.646-6.472 13.26-7.511"/><path fill="#fbfafa" d="m158.588 11.713 15.825.019c.524 4.419 1.93 9.695 2.863 14.092a1398 1398 0 0 0 7.181 31.922l-16.573-.07c-.278-2.404-.552-4.484-.979-6.864-6.186.267-13.033.095-19.239-.028-1.837.03-3.647.165-5.479.288-1.274 2.122-3.235 4.658-4.732 6.697l-16.446.006c3.232-4.307 6.848-8.424 10.275-12.582l17.683-21.54c2.843-3.467 7.106-8.4 9.621-11.94"/><path fill="#FF6B00" d="M161.811 25.15q.014.008.026.018l.039.032c1.004.82 3.13 13.22 3.667 15.56a312 312 0 0 1-12.106.215l-3.871-.005c1.738-2.022 3.682-4.742 5.397-6.88 2.282-2.846 4.802-5.954 6.848-8.94"/><path fill="#fbfafa" d="M285.543 11.642c.094-.007.354.078.462.108-.18.732-25.432 19.64-27.861 21.25 5.577 6.129 12.972 17.637 18.552 24.766l-19.329-.124c-4.222-5.57-11.003-15.43-14.666-21.265-1.588 6.652-3.89 13.882-5.753 20.566l-.207.526c-.903.548-12.788.282-14.752.27 4.284-15.343 9.127-30.467 13.07-45.936 4.715-.167 9.953-.067 14.712-.06-1.449 4.814-4.644 14.547-5.461 19.121a1791 1791 0 0 1 14.524-11.949c2.192-1.791 7.283-6.175 9.476-7.23 4.132.296 13.148.257 17.233-.043"/><path fill="#fbfafa" d="M66.7 11.631c5.65-.2 14.335-.17 18.34 4.448 5.784 6.666.965 17.138-4.654 22.367-6.718 6.25-15.576 5.93-24.114 5.764-3.711-.069-7.392.004-11.088-.166-1.14 4.475-2.905 9.259-4.28 13.768-4.41-.216-10.099-.068-14.607-.082 1.37-3.124 2.68-7.564 3.688-10.865 1.191-3.872 4.2-11.524 4.87-14.89 10.159-.103 20.37.236 30.547.1 7.601-.102 9.916-8.532 3.398-9.476-3.1-.45-10.405-.248-13.828-.217-5.544.05-11.976-.224-17.432.179 1.37-2.864 3.04-7.803 4.145-10.864.753.025 1.583.029 2.337.014 7.502-.152 15.197.253 22.677-.08"/><path fill="#fbfafa" d="M218.695 11.865c4.614-.038 11.261.136 15.668-.26-5.423 6.033-11.439 11.993-17.136 17.8-12.286 11.792-10.967 12.312-15.113 28.419-4.54-.12-9.928-.295-14.425-.139a682 682 0 0 1 5.466-18.304c-1.56-2.356-4.673-9.035-5.998-11.748-2.34-4.79-5.663-10.883-7.499-15.78 4.998-.197 10.413-.114 15.461-.167 2.175 5.436 5.621 11.887 7.483 17.333 4.111-5 11.432-12.756 16.093-17.154"/><path fill="#fbfafa" d="M94.811 11.672c3.154.124 12.071.413 14.815.047-3.036 11.551-7.539 23.418-10.393 35.018 8.388.188 18.108.218 26.485-.075l-6.357 8.203-2.011 2.895c-11.52-.094-24.704.475-36.111-.142 2.215-6.703 4.235-14.126 6.278-20.964 2.414-8.076 5.286-16.861 7.294-24.982"/></svg>