<?xml version="1.0" encoding="utf-8" ?><svg xmlns="http://www.w3.org/2000/svg" xmlns:xlink="http://www.w3.org/1999/xlink" width="1280" height="832" viewBox="0 0 1280 832"><path fill="white" d="M0 0L1280 0L1280 832L0 832L0 0Z"/><path fill="#0D1B4B" d="M571.483 312.33C572.674 313.297 630.849 493.736 637.971 515.567L574.966 515.543C567.386 487.255 559.53 462.587 550.341 434.819C544.395 444.772 538.502 454.757 532.662 464.772C522.192 481.238 512.566 498.953 502.113 515.638L435.636 515.184C440.967 505.877 451.501 491.502 457.946 481.888L499.03 420.043L549.784 343.797C556.513 333.889 564.321 321.769 571.483 312.33Z"/><path fill="#0D1B4B" d="M915.02 327.382C938.043 327.863 962.279 327.522 985.399 327.562C967.161 349.457 950.303 372.703 932.262 394.8C926.466 401.9 920.509 409.402 915.17 416.835C925.998 438.412 936.596 460.104 946.961 481.907C952.269 493.108 958.064 504.651 962.905 516.005C958.681 516.631 943.671 516.236 938.573 516.191L890.111 515.806C887.938 511.439 885.753 506.575 883.814 502.086C871.685 474.005 857.534 445.929 846.371 417.497C851.948 409.368 861.57 397.741 867.863 389.781C884.515 368.718 899.799 349.487 915.02 327.382Z"/><path fill="#0D1B4B" d="M155.504 326.967L218.357 327.118C232.09 327.21 246.743 326.666 260.232 328.975C308.913 337.377 311.419 398.679 287.59 431.825C275.458 448.7 256.64 456.071 236.878 459.314C225.051 461.157 213 460.75 201.02 460.748C203.962 446.567 207.195 432.448 210.719 418.401C220.876 418.572 230.236 418.05 237.266 409.543C240.97 405.074 242.692 399.288 242.033 393.521C241.535 388.98 239.532 384.672 235.851 381.861C234.218 380.611 232.326 379.742 230.313 379.316C225.668 378.316 214.68 378.614 209.447 379.074C207.973 379.944 207.493 381.99 205.739 382.283C199.565 383.316 193.113 383.964 186.902 384.695C171.861 386.334 156.846 388.205 141.863 390.306C142.625 384.99 144.945 376.01 146.162 370.469C149.399 355.995 152.513 341.494 155.504 326.967Z"/><path fill="#0D1B4B" d="M1131.81 342.432C1140.62 348.283 1148.76 359.03 1152.85 368.863C1176 424.586 1135.88 484.34 1085.07 506.521C1058.54 518.176 1028.46 518.789 1001.48 508.224C992.6 504.37 988.647 501.608 981.234 495.56C990.517 486.606 999.691 477.541 1008.75 468.366C1013.9 463.224 1021.5 456.057 1025.94 450.545C1054.74 471.783 1098.22 441.886 1096.94 408.527C1096.58 399.057 1094.51 392.483 1087.8 385.759C1102.27 371.117 1116.94 356.674 1131.81 342.432Z"/><path fill="#0D1B4B" d="M763.016 327.231L805.515 327.478C797.581 340.182 788.212 352.239 779.44 364.387C765.501 383.585 751.758 402.923 738.211 422.398C734.126 428.268 725.075 439.415 722.282 445.145C720.319 449.17 717.434 464.578 716.263 469.858L705.909 516.046L691.406 515.958C676.523 515.708 661.404 515.75 646.501 515.655C650.786 493.361 659.425 455.093 664.749 432.745C665.9 427.914 692.402 393.807 696.695 387.629C710.29 368.066 725.47 347.105 739.485 327.393L763.016 327.231Z"/><path fill="#0D1B4B" d="M1072.3 320.959C1090.66 320.588 1109.47 325.112 1124.66 335.647C1110.05 350.725 1094.43 365.792 1079.58 380.875C1040.56 372.585 1007.21 405.385 1020.86 444.111C1011.71 452.572 1002.77 461.246 994.04 470.126C987.963 476.182 981.799 482.15 975.549 488.027C962.649 473.303 955.648 456.208 955.232 436.623C953.827 370.573 1009.58 323.49 1072.3 320.959Z"/><path fill="#0D1B4B" d="M815.221 327.367C836.084 327.179 856.948 327.262 877.808 327.618C874.74 338.616 873.017 350.835 870.33 362C867.839 372.354 868.818 378.73 861.335 387.242C851.973 397.89 842.618 408.565 833.179 419.157L847.998 456.881C846.042 470.049 841.258 490.492 838.364 503.8C837.427 507.939 836.641 512.11 836.007 516.306L773.976 515.951C778.167 498.919 781.303 481.724 785.178 464.618C795.518 418.974 803.98 372.791 815.221 327.367Z"/><path fill="#0D1B4B" d="M330.211 327.57C351.926 327.356 373.31 326.967 395.038 327.445L372.359 430.984C371.734 433.854 366.521 455.765 366.639 457.144L368.71 457.644L370.699 459.387C348.943 468.812 319.774 477.904 297.141 486.228C298.266 474.257 304.227 450.963 306.812 438.131C314.223 401.333 323.215 364.461 330.211 327.57Z"/><path fill="#0D1B4B" d="M206.608 383.097L207.728 383.359C207.891 386.593 203.318 406.461 202.319 411.302C194.967 446.076 187.406 480.805 179.637 515.489C159.11 515.634 138.581 515.653 118.053 515.546L116.818 515.212C115.875 512.604 136.654 418.733 139.11 407.477C159.847 399.652 187.363 391.922 206.608 383.097Z"/><path fill="#0D1B4B" d="M379.334 457.632C402.344 457.034 427.419 457.545 450.584 457.57C439.507 475.767 424.138 497.343 412.044 515.305C395.321 515.687 378.595 515.845 361.868 515.78C338.106 515.747 314.344 515.584 290.583 515.292L292.895 503.597C305.701 497.245 318.613 490.137 331.313 483.536C347.369 475.192 363.728 466.778 379.334 457.632Z"/><path fill="#0D1B4B" d="M608.413 326.786L676.354 326.854C682.463 342.762 689.724 358.588 696.003 374.59C689.54 382.878 681.964 394.238 675.699 403.046C671.036 409.769 665.132 418.539 660.002 424.709C642.449 392.257 625.252 359.614 608.413 326.786Z"/><path fill="#141221" d="M368.71 457.644C369.579 457.585 372.801 457.164 373.282 457.889C373.128 458.516 371.318 459.092 370.699 459.387L368.71 457.644Z"/></svg>